<?xml version="1.0" encoding="UTF-8" standalone="no"?>
<svg
   xmlns:dc="http://purl.org/dc/elements/1.1/"
   xmlns:cc="http://creativecommons.org/ns#"
   xmlns:rdf="http://www.w3.org/1999/02/22-rdf-syntax-ns#"
   xmlns:svg="http://www.w3.org/2000/svg"
   xmlns="http://www.w3.org/2000/svg"
   version="1.0"
   width="1179.0658"
   height="199.4191"
   viewBox="0 0 210 297"
   id="svg2"
   xml:space="preserve"
   style="fill-rule:evenodd"><metadata
   id="metadata38"><rdf:RDF><cc:Work
       rdf:about=""><dc:format>image/svg+xml</dc:format><dc:type
         rdf:resource="http://purl.org/dc/dcmitype/StillImage" /><dc:title></dc:title></cc:Work></rdf:RDF></metadata>
 <defs
   id="defs4"><style
     type="text/css"
     id="style6" /></defs>
 <g
   transform="translate(-187.1307,-188.8938)"
   id="Camada_x0020_1">
  <g
   id="_42677040">
   
   <path
   d="m 1099.1885,447.12068 c 0,16.09519 13.0493,29.15006 29.15,29.15006 l 10.0966,0 c 16.1008,0 29.1501,-13.05208 29.1501,-29.15006 l 0,-229.07397 c 0,-16.10083 -13.0521,-29.15287 -29.1529,-29.15287 l -10.0909,0 c -16.1036,0 -29.1558,13.05488 -29.1558,29.15287 l 0,229.07397 0,0 z"
   id="_43413888"
   style="fill:#000000" />
   <path
   d="m 1103.0631,446.95099 c 0,14.09281 11.4174,25.513 25.5045,25.513 l 9.7233,-0.003 c 14.0873,0 25.5074,-11.41735 25.5074,-25.50732 l 0,-228.92693 c 0,-14.08714 -11.4258,-25.5045 -25.5131,-25.5045 l -9.7203,0 c -14.0871,0 -25.5073,11.41736 -25.5073,25.5045 l 0,228.92409 0,0 z"
   id="_43223480"
   style="fill:#ffffff" />
   <path
   d="m 1119.4665,439.56943 c 0,8.15083 5.4075,14.76029 12.0793,14.76029 6.6688,0 12.0762,-6.60663 12.0762,-14.76029 0,-8.15361 -5.4074,-14.76307 -12.0762,-14.76307 -6.6718,0 -12.0793,6.60946 -12.0793,14.76307 z"
   id="_43252336"
   style="fill:#000000" />
   <path
   d="m 1131.2883,334.55917 0,19.19205 c 0.079,0 0.1585,0.003 0.2377,0.003 6.6687,0 12.0762,-6.60944 12.0762,-14.76309 0,-8.15083 -5.4075,-14.76028 -12.0762,-14.76028 -6.6718,0 -12.0792,6.60945 -12.0792,14.76028 0,6.63208 3.5805,12.24602 8.5071,14.10695 l 0.014,-9.67803 -1.8186,0 c -2.4436,0 -4.4317,-1.98537 -4.4317,-4.42892 0,-2.44637 1.9854,-4.42893 4.4288,-4.42893 l 5.1417,-0.003 0,0 z"
   id="_43515888"
   style="fill:#000000" />
   <polygon
   points="126.908,143.459 126.908,143.146 126.684,143.146 126.684,143.459 126.684,143.459 "
   transform="matrix(28.28179,0,0,28.28179,-2436.46,-3792.32)"
   id="_43468352"
   style="fill:#000000" />
   <polygon
   points="126.539,143.459 126.539,143.146 125.756,143.146 125.756,143.459 125.756,143.459 "
   transform="matrix(28.28179,0,0,28.28179,-2436.46,-3792.32)"
   id="_43223936"
   style="fill:#000000" />
   <path
   d="m 1132.3913,239.67378 20.3289,0 0,8.86069 -32.5862,0 0,-7.98676 22.3001,-14.79137 c 1.6631,-1.18501 0.8711,-2.44923 -0.6307,-2.52555 l -21.6694,-0.003 0,-8.85785 32.5862,0 0,9.64975 -21.2734,13.99665 c -0.7949,0.5515 -0.6364,1.58096 0.9445,1.6573 z"
   id="_43424608"
   style="fill:#000000" />
   <path
   d="m 1142.29,272.5655 -22.1474,0 0,8.85504 13.4422,0 c 7.9075,0 7.752,11.07516 -0.3168,11.07516 l -13.1254,-0.003 0,8.86068 16.1346,0 c 3.7955,0 7.4324,-4.42891 7.4324,-9.17176 0,-3.64271 -2.0588,-9.33302 -3.6398,-10.75843 l 2.2202,-0.003 0,-8.85504 z"
   id="_43482504"
   style="fill:#000000" />
   <path
   d="m 1142.29,358.59869 -22.1474,0 0,8.86068 13.4422,0 c 7.9075,0 7.752,11.07233 -0.3168,11.07233 l -13.1254,0 0,8.85502 16.1346,0 c 3.7955,0 7.4324,-4.42608 7.4324,-9.17177 0,-3.63703 -2.0588,-9.33017 -3.6398,-10.75558 l 2.2202,0 0,-8.86068 z"
   id="_44150760"
   style="fill:#000000" />
   <path
   d="m 1121.7291,411.11798 c -1.4226,-2.21166 -2.3728,-4.58447 -2.3728,-7.27124 0,-5.69595 1.267,-11.38909 12.1809,-11.38909 11.8643,-0.003 11.2986,9.18308 11.5446,11.38909 0.1585,1.41974 -0.5515,4.74283 -2.3729,7.27407 l 12.0254,-0.003 0,8.85783 -32.5861,0 0,-8.85783 1.5809,0 z"
   id="_43775048"
   style="fill:#000000" />
   <polygon
   points="126.539,145.036 126.539,144.807 126.629,144.807 126.629,145.036 126.735,145.036 126.735,145.35 126.629,145.35 126.629,145.579 126.539,145.579 126.539,145.35 125.756,145.35 125.756,145.036 125.756,145.036 "
   transform="matrix(28.28179,0,0,28.28179,-2436.46,-3792.32)"
   id="_43776688"
   style="fill:#000000" />
   <path
   d="m 1121.7291,439.56943 c 0,-2.44634 1.9854,-4.42892 4.4288,-4.42892 l 10.4417,-0.003 c 2.4464,0 4.4261,1.98537 4.4261,4.43171 0,2.44074 -1.9825,4.42612 -4.4289,4.42612 l -10.436,0 c -2.4434,0 -4.4317,-1.98256 -4.4317,-4.42612 z"
   id="_43777288"
   style="fill:#ffffff" />
   <path
   d="m 1134.6255,334.55917 0,8.86069 1.9797,0 c 2.4464,0 4.4261,-1.98537 4.4261,-4.42892 0,-2.44637 -1.9824,-4.42893 -4.4289,-4.42893 l -1.9769,-0.003 0,0 z"
   id="_43777976"
   style="fill:#ffffff" />
   <path
   d="m 1137.0579,411.11798 c 3.637,-2.37004 3.1618,-8.85223 -2.8482,-8.85223 l -5.6931,0 c -3.7925,0 -8.6965,3.00354 -3.4814,8.85506 l 12.0227,-0.003 z"
   id="_43437104"
   style="fill:#ffffff" />
   <path
   d="m 1150.3502,456.17086 c 0,-2.47465 -1.9966,-4.46568 -4.443,-4.46568 -2.4719,0 -4.4658,1.99386 -4.4658,4.46568 0,2.46051 1.9912,4.44025 4.4658,4.44025 2.4491,-0.003 4.443,-1.97974 4.443,-4.44025 z"
   id="_43438192"
   style="fill:#000000" />
   <path
   d="m 1149.8129,456.17086 c 0,2.15787 -1.7506,3.90573 -3.9057,3.90573 -2.1776,0 -3.9312,-1.74786 -3.9312,-3.90573 0,-2.16639 1.7505,-3.91702 3.9312,-3.91702 2.1578,0 3.9029,1.75063 3.9057,3.91702 z"
   id="_43774416"
   style="fill:#ffffff" />
   <path
   d="m 1145.7119,455.12445 0,1.11429 -2.2935,1.42259 0,0.72401 2.2935,-1.50177 c 0.023,0.88239 0.382,1.57247 1.3634,1.57247 0.4183,-0.003 0.8626,-0.18664 1.0746,-0.56 0.2206,-0.37049 0.2432,-0.7919 0.2432,-1.21327 l 0,-2.16923 -4.9777,0 0,0.61091 2.2935,0 z"
   id="_43440224"
   style="fill:#000000" />
   <path
   d="m 1147.9463,455.12445 0,1.41972 c 0,0.61938 -0.093,1.29531 -0.8653,1.29531 -1.0098,0 -0.8967,-1.08603 -0.8967,-1.78458 l 0,-0.93045 1.762,0 0,0 z"
   id="_43442424"
   style="fill:#ffffff" />
   <polygon
   points="119.123,141.028 120.366,143.887 122.23,141.028 124.808,141.028 121.173,146.683 120.583,151.095 118.253,151.095 118.936,146.061 116.606,141.028 116.606,141.028 "
   transform="matrix(28.28179,0,0,28.28179,-2436.46,-3792.32)"
   id="_43443024"
   style="fill:#000000" />
   <polygon
   points="98.3992,148.857 94.8576,148.857 95.075,147.118 98.1505,147.118 98.4614,144.881 95.4168,144.881 95.6343,143.265 99.1759,143.265 99.5176,141.028 93.6458,141.028 92.2477,151.095 98.0884,151.095 98.0884,151.095 "
   transform="matrix(28.28179,0,0,28.28179,-2436.46,-3792.32)"
   id="_43441624"
   style="fill:#000000" />
   <path
   d="m -253.70213,340.30039 21.96931,-58.86572 7.03085,58.86572 -29.00016,0 0,0 z m -23.72558,56.24117 59.75094,0 10.54624,84.35607 108.07888,0 50.087031,-154.65045 24.605153,154.65045 57.117904,0 63.266615,-163.43194 10.543447,163.43194 63.26637,0 -17.57149,-284.69576 -75.572023,0 -58.871353,150.24981 -22.848867,-150.24981 -67.658511,0 -77.325226,233.732 -29.00016,-233.732 -84.35609,0 -94.01996,236.36502 12.29974,-92.2665 -114.23013,0 -7.91041,56.24117 50.08704,0 -3.51545,19.33057 c -8.78428,5.26892 -28.99448,6.15131 -36.90487,6.15131 -7.90759,0 -66.77924,-5.27173 -64.14311,-68.5381 2.63586,-63.2635 86.99198,-122.13489 187.16323,-89.62216 l 9.6667,-60.63047 c -66.78177,-22.84885 -242.18003,-10.06267 -260.09938,146.73722 -10.54061,92.26366 73.81575,136.20226 130.04843,135.32268 32.51274,1.75628 69.41764,-10.54629 82.59975,-17.57712 l -4.39497,13.18214 66.78461,0 32.50992,-84.35607 0,0 z"
   id="_43775888"
   style="fill:#000000" />
   <path
   d="M 790.18169,193.57448 C 744.48681,191.81817 678.58461,218.1768 656.62096,324.50219 634.6517,430.81625 693.52588,473.87527 748.00224,480.90612 802.48711,487.93413 878.92996,453.66511 892.9917,351.73755 907.05054,249.80717 856.96347,196.21319 790.18169,193.57448 z m -7.02801,60.63048 c 18.45105,0 57.99182,12.30256 48.32511,86.10675 -9.66108,73.81262 -55.35596,82.59976 -72.05071,80.84064 -16.69757,-1.7563 -50.96659,-13.17648 -41.2999,-80.84064 9.66956,-67.65288 45.69208,-86.98629 65.0255,-86.10675 l 0,0 z"
   id="_44102912"
   style="fill:#000000" />
   <path
   d="m 512.51112,305.17441 36.90491,0 c 27.24386,0 32.50993,-17.57147 33.38947,-24.5995 0.87958,-7.0337 -7.02518,-21.09254 -21.0869,-21.09254 l -43.05618,-0.003 -6.1513,45.69488 z m -15.818,112.46817 50.08989,0 c 27.24101,0 33.38663,-21.08689 34.26621,-28.11774 0.87955,-7.02804 -7.02803,-21.0869 -21.0869,-21.0869 l -56.23553,0 -7.03367,49.20464 0,0 z m -73.80695,63.26918 39.54073,-284.69577 121.25818,0 c 29.00014,0 71.17676,33.39231 65.90505,78.20481 -5.27173,44.8153 -19.33345,47.45116 -29.00016,54.4792 14.94127,13.17364 29.8797,34.26622 23.72843,73.80698 -6.15411,39.54075 -38.66402,78.20478 -95.78195,78.20478 l -125.65028,0 0,0 z"
   id="_44104296"
   style="fill:#000000" />
   <path
   d="m 1009.4786,437.84426 c -10.84322,0 -19.59354,8.74189 -19.59354,19.52858 0,10.8998 8.74759,19.64452 19.59074,19.64452 10.7866,0 19.5286,-8.74472 19.5286,-19.64452 0,-10.78949 -8.7447,-19.52858 -19.5286,-19.52858 l 0,-2.68678 c 12.2941,0 22.2069,9.97218 22.2069,22.21536 0,12.35632 -9.9128,22.32566 -22.2097,22.32566 -12.35909,-0.003 -22.33133,-9.96934 -22.33133,-22.32566 0.003,-12.24603 9.97224,-22.21251 22.33133,-22.21251 l 0,2.68393 0,0 z"
   id="_44106160"
   style="fill:#000000" />
   <path
   d="m 1004.2183,447.14897 7.1101,0 c 3.0968,0 6.468,0.46667 6.468,4.31579 0,5.06812 -5.416,4.48833 -8.9174,4.48833 l -4.6607,-0.003 0,2.3898 5.5969,0 7.1157,11.48807 3.6116,0 -7.5201,-11.48807 c 4.4289,-0.11311 7.8652,-1.92313 7.8652,-6.81872 0,-2.10136 -0.9304,-4.31297 -2.7999,-5.36225 -1.8552,-1.10864 -3.9595,-1.2246 -6.0608,-1.2246 l -10.8376,0 0,24.89364 3.029,0 0,-22.67917 0,0 z"
   id="_42975192"
   style="fill:#000000" />
  </g>
 </g>
</svg>