<?xml version="1.0" encoding="UTF-8" standalone="no"?>
<!-- Created with Inkscape (http://www.inkscape.org/) -->

<svg
   xmlns:dc="http://purl.org/dc/elements/1.1/"
   xmlns:cc="http://creativecommons.org/ns#"
   xmlns:rdf="http://www.w3.org/1999/02/22-rdf-syntax-ns#"
   xmlns:svg="http://www.w3.org/2000/svg"
   xmlns="http://www.w3.org/2000/svg"
   version="1.1"
   width="400"
   height="165"
   id="svg5242"
   xml:space="preserve"><metadata
     id="metadata5248"><rdf:RDF><cc:Work
         rdf:about=""><dc:format>image/svg+xml</dc:format><dc:type
           rdf:resource="http://purl.org/dc/dcmitype/StillImage" /><dc:title></dc:title></cc:Work></rdf:RDF></metadata><defs
     id="defs5246" /><g
     transform="matrix(1.25,0,0,-1.25,0,165)"
     id="g5250"><g
       transform="matrix(1.6249121,0,0,1.6249121,2.9712785,-91.5274)"
       id="g5469"><path
         d="m 81.79512,91.36968 c -0.99576,3.01584 -3.62064,5.88288 -3.62064,5.88288 0,0 -3.9516,5.12904 -11.7048,6.87744 -6.6384,1.3884 -11.85744,-1.53744 -11.85744,-1.53744 0,0 -4.73544,-1.90128 -8.29704,-5.82288 -5.67072,-5.46 -7.30104,-13.42488 -7.30104,-13.42488 0,0 -2.17128,-6.9396 1.26744,-12.43032 L 44.02224,66.39 c 5.28,-4.40616 10.92192,-4.85808 10.92192,-4.85808 0,0 4.55616,-1.02576 9.86616,0.36192 4.6452,0.93552 8.02488,3.22872 8.02488,3.22872 0,0 7.6932,4.25328 9.80448,12.94224 L 81.79512,91.36968 z M 69.81744,76.91904 c 0,0 -3.07776,-5.37096 -9.8352,-4.73616 -7.93416,0.81264 -8.86968,7.78224 -8.86968,7.78224 0,0 -1.08576,5.12904 3.80064,9.59424 4.94808,4.16352 10.10712,3.53064 10.10712,3.53064 0,0 3.46968,-0.33288 5.25096,-6.0648 2.29224,-7.30104 -0.45384,-10.10616 -0.45384,-10.10616"
         id="path5256"
         style="fill:#2d288b;fill-opacity:1;fill-rule:evenodd;stroke:none" /><path
         d="m 149.88552,92.96808 c -5.27712,8.62776 -14.56968,9.92544 -14.56968,9.92544 0,0 -2.9568,0.99648 -9.29232,0.15168 -11.88672,-2.26296 -16.02,-11.40456 -16.02,-11.40456 0,0 -4.25448,-6.69744 -2.56512,-14.81256 l 5.19,-10.25712 c 3.83064,-3.58968 5.39904,-3.58968 5.64096,-3.80256 5.06904,-2.29224 10.95192,-0.96456 10.95192,-0.96456 0,0 7.42128,0.7236 14.20968,6.0036 5.43,3.9816 7.78488,9.83448 7.78488,9.83448 l -1.33032,15.32616 z M 135.43584,75.34872 c -8.53776,-5.12808 -13.90776,0.48384 -13.90776,0.48384 0,0 -2.38296,1.5684 -2.8968,6.33552 -0.36192,5.52096 5.12904,8.38704 5.12904,8.38704 0,0 2.8968,1.78008 6.51648,1.5084 3.6216,-0.27096 4.7664,-0.03 7.6932,-2.20224 2.77512,-2.50512 2.59512,-4.34448 2.59512,-4.34448 0,0 0.99456,-6.21552 -5.12928,-10.16808"
         id="path5258"
         style="fill:#c8a601;fill-opacity:1;fill-rule:evenodd;stroke:none" /><path
         d="m 151.21584,77.64096 c 0,0 0.18,-4.82544 -0.57456,-6.00288 -1.02648,-2.20128 -0.8748,-4.34424 -0.8748,-4.34424 0,0 -0.69456,-6.51672 6.84936,-7.60224 5.18928,0.03 5.82192,4.3452 5.91192,6.18456 0.30192,1.44768 0.18096,8.17608 0.18096,8.17608 l 6.72744,-5.49096 c 0,0 4.88904,-4.10352 7.75416,-6.48744 2.99064,-2.35224 3.74064,-2.77416 3.74064,-2.77416 0,0 0.63552,-0.75384 2.92584,-0.48288 1.8432,-0.03168 3.5316,1.62936 3.5316,1.62936 0,0 2.14128,1.56768 2.68224,4.31352 0.66456,3.25776 -1.86744,4.85712 -1.86744,4.85712 0,0 -9.35256,7.5432 -15.68808,12.73224 4.25232,2.32224 6.30456,3.9216 6.30456,3.9216 0,0 5.9148,3.9216 7.18128,9.9252 1.75128,6.60768 -3.22872,9.2016 -3.22872,9.2016 0,0 -3.10776,2.2332 -5.73384,3.41064 -6.60648,3.22704 -12.75936,2.56416 -12.75936,2.56416 0,0 -8.75064,0.60288 -14.45256,-6.42744 -2.62392,-3.408 -0.99456,-7.87416 -0.99456,-7.87416 0,0 0.3252,-0.71544 1.0536,-4.10256 1.46832,-6.81288 1.33032,-15.32712 1.33032,-15.32712 z m 11.4648,13.3968 -0.5748,7.8732 c 0,0 5.52,0.12096 7.81416,-0.27096 4.52616,-0.69384 4.28256,-1.96128 4.28256,-1.96128 0,0 -0.14904,-1.5984 -3.58872,-3.16776 -3.7416,-1.81032 -7.9332,-2.4732 -7.9332,-2.4732"
         id="path5260"
         style="fill:#00766a;fill-opacity:1;fill-rule:evenodd;stroke:none" /><path
         d="m 107.4384,76.82712 c -2.5416,0.55872 -6.60744,-0.48192 -6.60744,-0.48192 0,0 -5.67,-2.08104 -6.54648,-2.05104 -0.33096,0.48168 -1.0548,9.74424 -0.84384,13.45488 0.12096,6.54648 -0.42288,11.88648 -0.42288,11.88648 0,0 -0.27096,6.30576 -3.6516,10.0464 -3.98136,4.01256 -6.75744,2.2932 -8.35488,1.32744 -3.83352,-3.43872 -2.0532,-7.63128 -2.0532,-7.63128 l 1.99224,-5.64288 c 0,0 0.96552,-2.41296 0.8448,-6.36552 L 82.63968,78.0648 c 0,-1.78032 1.4484,-13.75704 1.4484,-13.75704 0,0 0.15,-3.89256 3.8916,-4.58616 3.8316,-0.63288 7.60224,1.26648 9.2016,2.02032 1.5984,0.75456 3.7116,1.4184 3.7116,1.4184 0,0 1.7484,0.39192 3.49872,0.54384 4.10352,0.39264 5.58192,1.11552 5.58192,1.11552 0,0 1.58904,0.23904 2.65488,1.75128 1.06608,1.51128 2.3568,8.59776 -5.19,10.25616"
         id="path5262"
         style="fill:#639d01;fill-opacity:1;fill-rule:evenodd;stroke:none" /><path
         d="m 40.2816,70.91616 c -2.69448,0.80544 -5.79192,0.27096 -5.79192,0.27096 0,0 -8.74968,-0.8436 -13.305,0.12096 -7.05936,1.23672 -6.81936,8.83872 -6.81936,8.83872 0,0 -0.24,5.03904 4.013424,11.85672 5.249064,8.41776 11.041896,9.92616 11.041896,9.92616 0,0 1.4484,0.54192 2.8068,-0.18096 0.84384,-4.88712 5.58,-4.85712 5.58,-4.85712 0,0 6.81936,-0.45384 6.48672,7.81224 -0.7848,6.78936 -7.33128,7.72488 -10.07736,8.35776 -8.23488,1.4784 -13.574928,-2.92608 -13.574928,-2.92608 0,0 -5.520936,-2.98776 -12.128424,-13.39488 C 4.017192,90.28416 3.47532,85.21584 3.47532,85.21584 c 0,0 -0.542808,-1.20744 -0.331872,-6.5784 -0.12,-4.19232 1.448424,-7.2384 1.448424,-7.2384 0,0 2.384064,-7.2132 9.92532,-10.16904 4.58532,-1.90032 11.283768,-1.87032 11.283768,-1.87032 0,0 6.48648,0.09 11.46384,0.36192 2.71584,-0.21096 4.01328,1.20744 4.01328,1.20744 0,0 3.04608,1.99032 2.74416,5.46096 0,0 -0.58968,3.5832 -3.74064,4.52616"
         id="path5264"
         style="fill:#94012c;fill-opacity:1;fill-rule:evenodd;stroke:none" /><path
         d="m 60.09648,115.2348 -3.97776,0 -0.5316,11.98104 -5.172,-11.98104 -2.6532,0 -2.20968,10.83168 -3.44904,-10.83168 -6.76416,0 -1.01712,5.79072 -4.5984,0 -2.60832,-5.79072 -4.156752,0 8.534112,19.36392 4.9068,0 2.60808,-15.65064 5.08512,15.65064 3.9336,0 1.94544,-10.61064 4.51128,10.61064 4.77456,0 0.83904,-19.36392 z m -26.3736,9.55032 -0.7284,3.75648 -1.68,-3.75648 2.4084,0"
         id="path5266"
         style="fill:#01016b;fill-opacity:1;fill-rule:evenodd;stroke:none" /><path
         d="m 71.5032,115.2348 0.66456,4.15584 -6.94224,0 0.55032,3.44808 6.03768,0 0.6636,4.15608 -6.102,0 0.5304,3.44904 6.94032,0 0.66384,4.15488 -11.00808,0 -3.09576,-19.36392 11.09736,0"
         id="path5268"
         style="fill:#01016b;fill-opacity:1;fill-rule:evenodd;stroke:none" /><path
         d="m 123.18744,134.59872 -4.64328,0 -3.9348,-6.3216 -2.47488,6.3216 -4.55448,0 4.68648,-10.21224 -1.4436,-9.15168 3.97968,0 1.2216,8.0904 7.16328,11.27352"
         id="path5270"
         style="fill:#01016b;fill-opacity:1;fill-rule:evenodd;stroke:none" /><path
         d="m 93.53904,126.58224 c 1.23576,5.35392 5.8116,8.86776 10.21968,7.84872 4.41,-1.01904 6.98352,-6.18384 5.74872,-11.53776 -1.23552,-5.3532 -5.8116,-8.86704 -10.22064,-7.848 -4.41,1.01928 -6.98232,6.1848 -5.74776,11.53704 z m 6.0216,-7.66032 c 2.10456,-0.94128 4.68288,0.90552 5.75616,4.12584 1.07256,3.22128 0.23736,6.5964 -1.86744,7.5384 -2.10552,0.94224 -4.68096,-0.90552 -5.7552,-4.1268 -1.07352,-3.22224 -0.23736,-6.5952 1.86648,-7.53744"
         id="path5272"
         style="fill:#01016b;fill-opacity:1;fill-rule:evenodd;stroke:none" /><path
         d="m 14.47032,132.8748 c -3.791256,-2.34672 -5.614704,-5.9232 -5.129064,-10.78704 0.56436,-5.64192 7.870296,-9.19584 14.05968,-5.61552 0.541872,0.31296 0.33,0.26328 0.530616,0.44256 l 1.238448,7.87032 -7.383744,0 -0.566256,-3.62544 3.086256,0 -0.354384,-1.94616 c -1.768128,-0.70704 -4.77468,-0.4416 -6.056256,1.85712 -0.811872,1.45584 -1.56468,4.7052 1.857192,7.6932 2.784384,2.43168 7.604064,2.87232 10.390392,1.59096 0,0 0.35328,2.03328 0.61776,3.93552 -5.349408,1.85616 -9.50628,0.3084 -12.29064,-1.41552"
         id="path5274"
         style="fill:#01016b;fill-opacity:1;fill-rule:evenodd;stroke:none" /><path
         d="m 83.9868,130.41 c 0,0 0.08832,0 2.59032,0 2.808,0 2.238,-3.59712 -0.43776,-3.59712 -2.19456,0 -2.76552,0 -2.76552,0 L 83.9868,130.41 z m -1.22712,-7.54584 c 0,0 0.83352,0 3.33384,0 3.16032,0 3.072,-3.8616 -0.438,-3.8616 -2.19264,0 -3.51,0 -3.51,0 l 0.61416,3.8616 z M 80.56512,134.49192 77.4948,115.2732 c 0,0 6.36168,0 8.95032,0 3.6852,0 9.07488,5.43192 4.16904,9.87192 5.04456,5.22072 0.042,9.30072 -2.63352,9.3468 -2.14968,0.0346 -7.45776,0 -7.45776,0 l 0.04224,0"
         id="path5276"
         style="fill:#01016b;fill-opacity:1;fill-rule:evenodd;stroke:none" /><path
         d="m 118.3884,113.45904 -0.75096,0 0.62904,2.6748 -1.08456,0 0.13488,0.57456 2.92032,0 -0.13488,-0.57456 -1.0848,0 -0.62904,-2.6748"
         id="path5278"
         style="fill:#01016b;fill-opacity:1;fill-rule:evenodd;stroke:none" /><path
         d="m 123.3648,113.45904 -0.70032,0 0.6384,2.71608 -0.009,0 -1.308,-2.71608 -0.73584,0 -0.0178,2.71608 -0.009,0 -0.6384,-2.71608 -0.70032,0 0.76296,3.24936 1.09512,0 0.0487,-2.56224 0.0103,0 1.24128,2.56224 1.08648,0 -0.76392,-3.24936"
         id="path5280"
         style="fill:#01016b;fill-opacity:1;fill-rule:evenodd;stroke:none" /></g></g></svg>