<?xml version="1.0" encoding="UTF-8" standalone="no"?>
<!-- Created with Inkscape (http://www.inkscape.org/) -->

<svg
   xmlns:dc="http://purl.org/dc/elements/1.1/"
   xmlns:cc="http://creativecommons.org/ns#"
   xmlns:rdf="http://www.w3.org/1999/02/22-rdf-syntax-ns#"
   xmlns:svg="http://www.w3.org/2000/svg"
   xmlns="http://www.w3.org/2000/svg"
   xmlns:sodipodi="http://sodipodi.sourceforge.net/DTD/sodipodi-0.dtd"
   xmlns:inkscape="http://www.inkscape.org/namespaces/inkscape"
   id="svg2985"
   version="1.1"
   inkscape:version="0.48.4 r9939"
   width="279.56927"
   height="83.733566"
   sodipodi:docname="Xbox_logo_2012.png">
  <title
     id="title3507">XBOX</title>
  <metadata
     id="metadata2991">
    <rdf:RDF>
      <cc:Work
         rdf:about="">
        <dc:format>image/svg+xml</dc:format>
        <dc:type
           rdf:resource="http://purl.org/dc/dcmitype/StillImage" />
        <dc:title>XBOX</dc:title>
      </cc:Work>
    </rdf:RDF>
  </metadata>
  <defs
     id="defs2989" />
  <sodipodi:namedview
     pagecolor="#ffffff"
     bordercolor="#666666"
     borderopacity="1"
     objecttolerance="10"
     gridtolerance="10"
     guidetolerance="10"
     inkscape:pageopacity="0"
     inkscape:pageshadow="2"
     inkscape:window-width="1366"
     inkscape:window-height="705"
     id="namedview2987"
     showgrid="false"
     fit-margin-top="0"
     fit-margin-left="0"
     fit-margin-right="0"
     fit-margin-bottom="0"
     inkscape:zoom="4.2918149"
     inkscape:cx="127.24783"
     inkscape:cy="42.200952"
     inkscape:window-x="-8"
     inkscape:window-y="-8"
     inkscape:window-maximized="1"
     inkscape:current-layer="svg2985" />
  <path
     style="fill:#7eb900"
     d="m 33.040201,82.701574 c -10.1452,-2.593187 -21.45855,-9.859103 -21.45855,-13.781599 0,-5.251223 11.48227,-19.948918 24.06844,-30.808425 l 7.08045,-6.109101 3.17556,2.211814 c 4.98834,3.474443 20.94934,20.006518 24.52017,25.397482 5.79386,8.747131 5.53545,10.69743 -2.15031,16.229396 -9.26973,6.672059 -24.42709,9.623209 -35.23576,6.860433 z M 6.7764412,64.633333 c -6.61525998,-9.715711 -8.74057,-25.714463 -4.79571,-36.100716 2.4433,-6.432867 8.2025298,-15.192858 11.3400698,-17.248653 2.26636,-1.4849784 2.70061,-1.4693304 5.8183,0.20966 1.85304,0.997925 5.72099,3.920852 8.59544,6.495394 l 5.22629,4.680986 -5.59677,6.931307 C 16.118041,43.528899 7.4565512,60.912375 9.1322912,66.192172 c 0.84552,2.663997 0.25201,2.271279 -2.35585,-1.558839 z M 76.766341,64.331421 c -0.11214,-8.125538 -6.4709,-20.402692 -17.98276,-34.720193 l -5.56509,-6.92139 4.98943,-4.57861 c 2.74418,-2.518236 6.64363,-5.464531 8.66543,-6.547322 l 3.67602,-1.9687104 4.07193,3.9687104 c 2.23957,2.182791 5.50934,6.881861 7.26615,10.442378 2.75245,5.578377 3.24175,7.74567 3.53805,15.671268 0.39739,10.629987 -1.22069,17.492658 -5.70376,24.190977 l -2.90195,4.335912 -0.0534,-3.87302 z M 203.46672,66.71422 c -5.8784,-2.200268 -9.30836,-5.206001 -12.37917,-10.848097 -2.49927,-4.591974 -2.89455,-6.401601 -2.91031,-13.323596 -0.0367,-16.111296 7.82158,-25.234401 22.64972,-26.295349 8.38266,-0.599776 13.89662,1.297576 19.01697,6.543733 4.65472,4.769079 6.74926,10.751056 6.69383,19.117433 -0.0737,11.125454 -4.34869,19.241507 -12.26404,23.283339 -5.2174,2.66417 -15.70636,3.431692 -20.807,1.522537 z m 17.24581,-6.279334 c 3.36759,-1.702986 7.65511,-6.791324 8.61941,-10.229341 0.41234,-1.47011 0.72899,-5.597928 0.70366,-9.172928 -0.0779,-10.991265 -5.24872,-17.944787 -14.50753,-19.509052 -14.37259,-2.428234 -24.61544,12.530899 -19.73468,28.821438 3.07281,10.256123 15.02249,15.094607 24.91914,10.089883 z m -117.13088,6.290568 c 0,-0.16894 3.79941,-5.843424 8.44313,-12.609965 l 8.44312,-12.302802 -2.30106,-3.640035 c -1.26559,-2.002019 -4.84265,-7.577535 -7.94902,-12.390035 l -5.64796,-8.75 3.96672,0 3.96671,0 5.78918,9.98735 c 3.18405,5.493042 6.01418,9.980527 6.28918,9.972187 0.275,-0.0083 3.2,-4.490131 6.5,-9.959537 5.8571,-9.707534 6.0884,-9.945037 9.71156,-9.972187 l 3.71156,-0.02781 -8.00474,12.383697 -8.00474,12.383698 7.36973,11.366302 c 4.05336,6.251467 7.69935,11.928803 8.1022,12.616303 0.53299,0.909586 -0.30485,1.249223 -3.07655,1.247147 -3.76583,-0.0028 -3.88145,-0.122284 -10.19686,-10.535373 l -6.38783,-10.53252 -4.66272,7.285373 c -2.56449,4.006955 -5.52449,8.747873 -6.57777,10.535373 -1.62443,2.756779 -2.48938,3.25 -5.69945,3.25 -2.08141,0 -3.78439,-0.138223 -3.78439,-0.307163 z m 47,-24.77889 0,-25.086053 11.43715,0.336053 c 11.08784,0.325789 11.5307,0.425758 14.5,3.273144 2.65737,2.548263 3.06285,3.634071 3.06285,8.201862 0,4.691472 -0.37689,5.630799 -3.46105,8.626104 l -3.46106,3.361332 3.23551,1.169974 c 6.51387,2.355446 8.78467,11.767245 4.41667,18.305754 -3.65462,5.470626 -7.67675,6.89454 -19.48007,6.896329 l -10.25,0.0016 0,-25.086053 z m 22.82191,16.718693 c 3.34054,-3.34054 3.50851,-8.746666 0.3693,-11.885873 -1.79343,-1.793431 -3.61749,-2.279925 -9.7,-2.587078 l -7.49121,-0.378289 0,8.442633 c 0,4.643449 0.3375,8.790165 0.75,9.214925 0.4125,0.424761 3.61736,0.547176 7.12191,0.272034 5.12047,-0.402007 6.87823,-1.006591 8.95,-3.078352 z m -4.50617,-21.795983 c 4.90931,-2.614713 6.12454,-7.836421 2.78387,-11.961977 -1.63015,-2.013145 -2.80336,-2.348865 -8.25,-2.360784 l -6.34961,-0.0139 -0.29206,7.75 -0.29207,7.75 5.10781,0 c 2.80929,0 6.09072,-0.523504 7.29206,-1.163343 z m 69.68426,29.615097 c 0,-0.367936 3.38957,-5.57127 7.53238,-11.562964 4.14281,-5.991693 7.77911,-11.536949 8.08067,-12.32279 0.30155,-0.785841 -2.56181,-6.297172 -6.36302,-12.247401 -3.80122,-5.95023 -7.23907,-11.381099 -7.63968,-12.068599 -0.53031,-0.910071 0.32319,-1.25 3.1385,-1.25 3.84239,0 3.90382,0.06332 9.70167,10 3.20913,5.5 5.96728,10 6.12922,10 0.16194,0 3.0953,-4.5 6.51859,-10 5.86758,-9.427107 6.41543,-10 9.56291,-10 1.83632,0 3.33876,0.206051 3.33876,0.457891 0,0.25184 -3.40422,5.701146 -7.56494,12.109569 -4.16072,6.408423 -7.36304,12.177847 -7.11626,12.820944 0.24678,0.643096 3.87322,6.44379 8.05875,12.890431 l 7.61006,11.721165 -3.84456,0 c -3.80326,0 -3.9145,-0.113027 -10.356,-10.521969 l -6.51145,-10.521968 -6.48006,10.271968 c -6.12295,9.705883 -6.68164,10.289073 -10.1378,10.582334 -2.01176,0.170701 -3.65774,0.0093 -3.65774,-0.358611 z M 38.099911,11.486672 c -2.18996,-1.296582 -6.78985,-3.1175394 -10.22198,-4.0465734 -3.43213,-0.929033 -6.03822,-2.016008 -5.79133,-2.415499 0.2469,-0.399491 3.62511,-1.747631 7.50713,-2.9958666 10.16082,-3.2671417 22.187,-2.54730933 31.14723,1.8643326 3.48738,1.717038 5.39999,2.893326 4.25024,2.613973 -2.56059,-0.622147 -13.71709,2.757822 -18.18372,5.5089344 -3.92017,2.414531 -3.71422,2.427049 -8.70757,-0.529301 z"
     id="path3505"
     inkscape:connector-curvature="0" />
</svg>
